<svg width="32" height="32" viewBox="0 0 32 32" fill="none" xmlns="http://www.w3.org/2000/svg">
<g clip-path="url(#clip0_1128_6608)">
<path d="M3.81006 1.52H28.1901V3.05H5.34006V4.57H28.1901V6.1H3.81006V7.62H5.34006V30.48H3.81006V32H29.7201V30.48H6.86006V7.62H29.7201V30.48H31.2401V6.1H29.7201V1.52H31.2401V0H3.81006V1.52Z" fill="#000001"/>
<path d="M25.15 24.38H23.62V25.91H25.15V24.38Z" fill="#000001"/>
<path d="M25.15 12.19H23.62V10.67H12.96V12.19H11.43V13.72H9.91003V24.38H11.43V18.29H12.96V16.76H14.48V15.24H22.1V16.76H23.62V18.29H25.15V24.38H26.67V13.72H25.15V12.19Z" fill="#000001"/>
<path d="M23.62 25.91H12.96V27.43H23.62V25.91Z" fill="#000001"/>
<path d="M22.1001 21.33H20.5701V22.86H22.1001V21.33Z" fill="#000001"/>
<path d="M22.1001 18.29H20.5701V19.81H22.1001V18.29Z" fill="#000001"/>
<path d="M20.57 22.86H16V24.38H20.57V22.86Z" fill="#000001"/>
<path d="M16 21.33H14.48V22.86H16V21.33Z" fill="#000001"/>
<path d="M16 18.29H14.48V19.81H16V18.29Z" fill="#000001"/>
<path d="M12.9601 24.38H11.4301V25.91H12.9601V24.38Z" fill="#000001"/>
<path d="M3.81004 28.95H2.29004V30.48H3.81004V28.95Z" fill="#000001"/>
<path d="M3.81004 1.51999H2.29004V3.04999H3.81004V1.51999Z" fill="#000001"/>
<path d="M2.29001 6.09999H3.81001V4.56999H2.29001V3.04999H0.76001V28.95H2.29001V6.09999Z" fill="#000001"/>
</g>
<defs>
<clipPath id="clip0_1128_6608">
<rect width="32" height="32" fill="white"/>
</clipPath>
</defs>
</svg>
